<svg version="1.1" id="Layer_1" xmlns="http://www.w3.org/2000/svg" xmlns:xlink="http://www.w3.org/1999/xlink" x="0px" y="0px"
	 width="100%" viewBox="0 0 129 129" enable-background="new 0 0 129 129" xml:space="preserve">
<path fill="#FEFEFE" opacity="1.000000" stroke="none" 
	d="
M86.000000,130.000000 
	C57.360649,130.000000 29.221300,130.000000 1.040975,130.000000 
	C1.040975,87.069054 1.040975,44.138054 1.040975,1.103529 
	C43.889053,1.103529 86.778442,1.103529 129.833923,1.103529 
	C129.833923,43.999470 129.833923,86.999687 129.833923,130.000000 
	C115.471840,130.000000 100.985924,130.000000 86.000000,130.000000 
M24.734539,84.632065 
	C28.327742,92.049004 33.323124,98.321892 40.225006,102.883827 
	C69.305992,122.105522 106.573112,102.736938 110.029251,71.047058 
	C112.358437,49.690323 100.134338,32.185329 83.238060,24.099363 
	C76.002266,20.636568 68.343071,20.877050 60.281334,21.462748 
	C51.081825,22.131102 43.460365,25.244341 36.760010,30.824383 
	C21.191090,43.790154 16.130646,64.620598 24.734539,84.632065 
z"/>
<path fill="#1E1E1D" opacity="1.000000" stroke="none" 
	d="
M24.526861,84.310791 
	C16.130646,64.620598 21.191090,43.790154 36.760010,30.824383 
	C43.460365,25.244341 51.081825,22.131102 60.281334,21.462748 
	C68.343071,20.877050 76.002266,20.636568 83.238060,24.099363 
	C100.134338,32.185329 112.358437,49.690323 110.029251,71.047058 
	C106.573112,102.736938 69.305992,122.105522 40.225006,102.883827 
	C33.323124,98.321892 28.327742,92.049004 24.526861,84.310791 
M41.877182,91.917465 
	C43.484348,91.529854 45.073238,91.012726 46.702656,90.782852 
	C49.669701,90.364273 53.184944,88.951653 55.544334,90.013603 
	C62.849617,93.301682 69.741745,92.858612 76.625305,89.557678 
	C86.173126,84.979126 92.158607,77.442856 92.797478,66.755127 
	C93.411674,56.480099 89.251465,48.026649 80.344223,42.493832 
	C69.474373,35.741928 58.843910,37.512695 48.548798,44.086349 
	C42.511375,47.941380 36.795013,61.459587 39.564331,69.533531 
	C42.049385,76.778694 40.486458,83.049301 38.790379,89.706116 
	C38.571602,90.564781 38.469330,91.453117 38.243305,92.718369 
	C39.554691,92.406540 40.327690,92.222740 41.877182,91.917465 
z"/>
<path fill="#F5F5F5" opacity="1.000000" stroke="none" 
	d="
M41.488937,91.978195 
	C40.327690,92.222740 39.554691,92.406540 38.243305,92.718369 
	C38.469330,91.453117 38.571602,90.564781 38.790379,89.706116 
	C40.486458,83.049301 42.049385,76.778694 39.564331,69.533531 
	C36.795013,61.459587 42.511375,47.941380 48.548798,44.086349 
	C58.843910,37.512695 69.474373,35.741928 80.344223,42.493832 
	C89.251465,48.026649 93.411674,56.480099 92.797478,66.755127 
	C92.158607,77.442856 86.173126,84.979126 76.625305,89.557678 
	C69.741745,92.858612 62.849617,93.301682 55.544334,90.013603 
	C53.184944,88.951653 49.669701,90.364273 46.702656,90.782852 
	C45.073238,91.012726 43.484348,91.529854 41.488937,91.978195 
M64.201096,44.189350 
	C63.350945,44.635780 62.546886,45.314571 61.643715,45.493748 
	C48.302864,48.140400 41.645363,60.410725 46.516457,73.068008 
	C47.335846,75.197136 47.408230,77.786896 47.181011,80.100510 
	C46.914833,82.810875 46.904900,84.198685 50.384678,83.672569 
	C52.841431,83.301125 55.715794,83.414482 57.968018,84.354881 
	C68.710358,88.840256 80.346924,82.807793 84.662437,74.505005 
	C91.730293,60.906921 81.722351,43.834846 64.201096,44.189350 
z"/>
<path fill="#21211F" opacity="1.000000" stroke="none" 
	d="
M64.590309,44.150414 
	C81.722351,43.834846 91.730293,60.906921 84.662437,74.505005 
	C80.346924,82.807793 68.710358,88.840256 57.968018,84.354881 
	C55.715794,83.414482 52.841431,83.301125 50.384678,83.672569 
	C46.904900,84.198685 46.914833,82.810875 47.181011,80.100510 
	C47.408230,77.786896 47.335846,75.197136 46.516457,73.068008 
	C41.645363,60.410725 48.302864,48.140400 61.643715,45.493748 
	C62.546886,45.314571 63.350945,44.635780 64.590309,44.150414 
M52.831543,61.730934 
	C54.452946,64.690376 55.670040,67.984489 57.782948,70.537086 
	C61.740932,75.318726 67.155800,78.262459 73.365585,78.037987 
	C75.574081,77.958153 78.706398,75.392204 79.588631,73.218918 
	C80.921059,69.936592 77.314575,69.280197 75.007271,68.961021 
	C72.712921,68.643646 70.299858,69.184456 66.825180,69.426529 
	C65.428108,68.046082 63.103912,65.749550 60.603794,63.279194 
	C64.790070,59.671989 61.517315,56.664631 59.935566,53.684605 
	C59.572632,53.000835 57.525608,52.551052 56.640503,52.920486 
	C53.121498,54.389271 51.808674,57.221611 52.831543,61.730934 
z"/>
<path fill="#F3F3F3" opacity="1.000000" stroke="none" 
	d="
M52.735264,61.358498 
	C51.808674,57.221611 53.121498,54.389271 56.640503,52.920486 
	C57.525608,52.551052 59.572632,53.000835 59.935566,53.684605 
	C61.517315,56.664631 64.790070,59.671989 60.603794,63.279194 
	C63.103912,65.749550 65.428108,68.046082 66.825180,69.426529 
	C70.299858,69.184456 72.712921,68.643646 75.007271,68.961021 
	C77.314575,69.280197 80.921059,69.936592 79.588631,73.218918 
	C78.706398,75.392204 75.574081,77.958153 73.365585,78.037987 
	C67.155800,78.262459 61.740932,75.318726 57.782948,70.537086 
	C55.670040,67.984489 54.452946,64.690376 52.735264,61.358498 
z"/>
</svg>