<?xml version="1.0" standalone="no"?>
<!DOCTYPE svg PUBLIC "-//W3C//DTD SVG 20010904//EN"
 "http://www.w3.org/TR/2001/REC-SVG-20010904/DTD/svg10.dtd">
<svg version="1.0" xmlns="http://www.w3.org/2000/svg"
 width="126.000000pt" height="126.000000pt" viewBox="0 0 126.000000 126.000000"
 preserveAspectRatio="xMidYMid meet">

<g transform="translate(0.000000,126.000000) scale(0.100000,-0.100000)"
fill="#000000" stroke="none">
<path d="M534 930 c-89 -27 -181 -123 -205 -213 -16 -61 -7 -173 20 -225 29
-58 93 -119 150 -145 67 -32 198 -31 263 1 60 30 120 90 150 150 32 65 33 196
1 263 -26 57 -87 120 -145 150 -48 25 -180 36 -234 19z m-4 -115 c18 -22 4
-64 -25 -71 -27 -7 -41 -1 -54 25 -23 41 49 83 79 46z m268 -131 c20 -22 22
-36 22 -125 l0 -99 -40 0 -40 0 0 74 c0 89 -5 106 -34 106 -37 0 -46 -19 -46
-102 l0 -78 -40 0 -40 0 0 125 0 125 40 0 c22 0 40 -4 40 -9 0 -6 12 -3 28 5
36 19 81 10 110 -22z m-268 -99 l0 -125 -40 0 -40 0 0 125 0 125 40 0 40 0 0
-125z"/>
</g>
</svg>
